<?xml version="1.0" standalone="no"?>
<!DOCTYPE svg PUBLIC "-//W3C//DTD SVG 20010904//EN"
 "http://www.w3.org/TR/2001/REC-SVG-20010904/DTD/svg10.dtd">
<svg version="1.0" xmlns="http://www.w3.org/2000/svg"
 width="344.000000pt" height="344.000000pt" viewBox="0 0 344.000000 344.000000"
 preserveAspectRatio="xMidYMid meet">

<g transform="translate(0.000000,344.000000) scale(0.100000,-0.100000)"
fill="#000000" stroke="none">
<path d="M2249 2758 c-111 -156 -420 -497 -788 -870 l-294 -299 -32 31 c-17
16 -38 30 -47 30 -32 0 -30 -23 6 -58 l36 -36 -194 -196 c-146 -146 -197 -204
-203 -230 -21 -79 33 -150 114 -150 l47 0 203 202 203 202 33 -32 c62 -60 95
-27 35 35 l-31 32 224 228 c378 384 685 727 730 816 30 58 36 149 15 234 -24
96 -29 102 -57 61z m24 -162 c1 -44 -6 -75 -21 -107 -40 -81 -300 -371 -719
-804 l-223 -230 -52 52 -52 52 245 248 c350 356 630 660 759 825 52 68 62 62
63 -36z"/>
<path d="M2088 2393 c-48 -54 -110 -124 -138 -155 -28 -32 -47 -58 -41 -58 10
0 236 244 267 288 37 53 -8 14 -88 -75z"/>
<path d="M1780 2055 c-36 -36 -58 -64 -50 -64 16 1 126 116 119 124 -3 2 -34
-25 -69 -60z"/>
<path d="M1497 1762 c-151 -152 -194 -202 -173 -202 8 0 359 371 354 375 -2 2
-84 -76 -181 -173z"/>
<path d="M437 2592 c-25 -27 -22 -78 5 -96 33 -23 64 -19 87 10 26 33 26 45 0
78 -24 31 -68 35 -92 8z"/>
<path d="M2465 2302 c-6 -4 -76 -86 -156 -182 -81 -96 -206 -242 -279 -325
-142 -160 -629 -652 -793 -801 l-98 -89 84 -84 85 -84 119 109 c407 372 797
783 1104 1163 119 148 127 167 89 229 -34 55 -119 91 -155 64z"/>
<path d="M780 630 c-11 -11 -20 -31 -20 -45 0 -14 9 -34 20 -45 11 -11 31 -20
45 -20 14 0 34 9 45 20 11 11 20 31 20 45 0 14 -9 34 -20 45 -11 11 -31 20
-45 20 -14 0 -34 -9 -45 -20z"/>
</g>
</svg>
